<svg width="24" height="24" viewBox="0 0 24 24" fill="none" xmlns="http://www.w3.org/2000/svg">
  <circle cx="12" cy="12" r="12" fill="#0052FF" fill-opacity="0.1"/>
  <path d="M12 4.5C7.85786 4.5 4.5 7.85786 4.5 12C4.5 16.1421 7.85786 19.5 12 19.5C16.1421 19.5 19.5 16.1421 19.5 12C19.5 7.85786 16.1421 4.5 12 4.5ZM8.24219 9C8.24219 8.58579 8.57797 8.25 8.99219 8.25H15.0078C15.422 8.25 15.7578 8.58579 15.7578 9V15C15.7578 15.4142 15.422 15.75 15.0078 15.75H8.99219C8.57797 15.75 8.24219 15.4142 8.24219 15V9Z" fill="#0052FF"/>
</svg> 